<svg xmlns="http://www.w3.org/2000/svg" viewBox="0 0 360 110" width="360" height="110">

  <!-- Arc Top→Right -->
  <path d="M 71 27 Q 88 27 88 44" fill="none" stroke="#4a90d9" stroke-width="1.8" opacity="0.85" stroke-linecap="round"/>
  <polygon points="88,46 84,39 92,39" fill="#4a90d9" opacity="0.9"/>
  <!-- Arc Right→Bottom -->
  <path d="M 88 66 Q 88 83 71 83" fill="none" stroke="#5ab87a" stroke-width="1.8" opacity="0.85" stroke-linecap="round"/>
  <polygon points="69,83 76,79 76,87" fill="#5ab87a" opacity="0.9"/>
  <!-- Arc Bottom→Left -->
  <path d="M 49 83 Q 32 83 32 66" fill="none" stroke="#e8a23c" stroke-width="1.8" opacity="0.85" stroke-linecap="round"/>
  <polygon points="32,64 28,71 36,71" fill="#e8a23c" opacity="0.9"/>
  <!-- Arc Left→Top -->
  <path d="M 32 44 Q 32 27 49 27" fill="none" stroke="#d46b8a" stroke-width="1.8" opacity="0.85" stroke-linecap="round"/>
  <polygon points="51,27 44,23 44,31" fill="#d46b8a" opacity="0.9"/>

  <!-- Nodes -->
  <circle cx="60" cy="27" r="11" fill="#ffffff" stroke="#4a90d9" stroke-width="1.8"/>
  <circle cx="60" cy="27" r="4" fill="#4a90d9"/>
  <circle cx="88" cy="55" r="11" fill="#ffffff" stroke="#5ab87a" stroke-width="1.8"/>
  <circle cx="88" cy="55" r="4" fill="#5ab87a"/>
  <circle cx="60" cy="83" r="11" fill="#ffffff" stroke="#e8a23c" stroke-width="1.8"/>
  <circle cx="60" cy="83" r="4" fill="#e8a23c"/>
  <circle cx="32" cy="55" r="11" fill="#ffffff" stroke="#d46b8a" stroke-width="1.8"/>
  <circle cx="32" cy="55" r="4" fill="#d46b8a"/>

  <!-- Wordmark "Impact" (Crimson Pro 600, converted to path) -->
  <path fill="#1a365d" d="M128.20 52L119.41 52L119.30 50.38L121.52 49.86Q121.59 49.68 121.62 48.98Q121.66 48.27 121.69 47.11Q121.73 45.95 121.73 44.51L121.73 44.51L121.73 38.89Q121.73 37.38 121.69 36.21Q121.66 35.05 121.62 34.33Q121.59 33.61 121.52 33.51L121.52 33.51L119.30 32.98L119.41 31.36L128.20 31.36L128.30 32.98L126.09 33.51Q126.02 33.65 125.96 34.35Q125.91 35.05 125.89 36.20Q125.88 37.34 125.88 38.89L125.88 38.89L125.88 44.51Q125.88 45.99 125.89 47.13Q125.91 48.27 125.96 48.98Q126.02 49.68 126.09 49.86L126.09 49.86L128.30 50.38L128.20 52Z M138.21 52L129.91 52L129.80 50.49L131.98 49.93Q132.02 49.79 132.05 49.33Q132.09 48.87 132.13 48.12Q132.16 47.36 132.16 46.34L132.16 46.34L132.20 43.67Q132.20 42.96 132.16 42.31Q132.13 41.66 132.05 41.05Q131.98 40.43 131.88 39.91L131.88 39.91L129.63 39.41L129.63 37.97L135.36 36.46L136.20 37.06L135.99 39.03L136.10 39.06Q137.22 37.66 138.42 37.02Q139.61 36.39 140.91 36.39L140.91 36.39Q142.25 36.39 143.43 37.08Q144.61 37.76 145.34 39.15Q146.08 40.54 146.08 42.68L146.08 42.68L146.15 46.34Q146.15 47.54 146.19 48.57Q146.22 49.61 146.33 49.93L146.33 49.93L148.33 50.49L148.23 52L140.32 52L140.21 50.49L142.07 49.93Q142.14 49.64 142.18 49.12Q142.21 48.59 142.23 47.89Q142.25 47.18 142.25 46.45L142.25 46.45L142.21 42.96Q142.21 41.63 141.81 40.82Q141.41 40.01 140.74 39.66Q140.07 39.31 139.26 39.31L139.26 39.31Q138.38 39.31 137.54 39.75Q136.70 40.19 136.10 41.03L136.10 41.03L136.10 46.23Q136.10 47.54 136.15 48.59Q136.20 49.64 136.31 49.93L136.31 49.93L138.31 50.49L138.21 52ZM158.39 52L150.27 52L150.16 50.49L152.06 49.93Q152.13 49.64 152.16 49.12Q152.20 48.59 152.22 47.89Q152.23 47.18 152.23 46.45L152.23 46.45L152.20 43.18Q152.20 41.77 151.76 40.93Q151.32 40.08 150.62 39.70Q149.91 39.31 149.11 39.31L149.11 39.31Q148.12 39.31 147.26 39.75Q146.40 40.19 145.77 41.10L145.77 41.10L144.89 39.70Q146.12 38.08 147.52 37.23Q148.93 36.39 150.55 36.39L150.55 36.39Q152.20 36.39 153.45 37.16Q154.70 37.94 155.38 39.33Q156.07 40.71 156.07 42.61L156.07 42.61L156.10 46.34Q156.10 47.54 156.15 48.57Q156.21 49.61 156.31 49.93L156.31 49.93L158.49 50.49L158.39 52Z M168.36 59.73L159.22 59.73L159.12 58.22L161.30 57.66Q161.30 57.48 161.33 56.96Q161.37 56.43 161.38 55.59Q161.40 54.74 161.44 53.62Q161.47 52.49 161.47 51.12L161.47 51.12L161.54 43.60Q161.54 42.54 161.47 41.63Q161.40 40.71 161.23 39.91L161.23 39.91L158.98 39.41L158.98 37.97L164.71 36.46L165.55 37.06L165.30 39.10L165.41 39.13Q166.29 37.87 167.52 37.13Q168.75 36.39 170.16 36.39L170.16 36.39Q171.91 36.39 173.39 37.29Q174.87 38.18 175.76 39.84Q176.66 41.49 176.66 43.77L176.66 43.77Q176.66 46.09 175.61 48.01Q174.55 49.93 172.65 51.09Q170.75 52.25 168.22 52.25L168.22 52.25Q167.55 52.25 166.82 52.12Q166.08 52 165.45 51.75L165.45 51.75L165.45 54.11Q165.45 55.34 165.50 56.36Q165.55 57.38 165.59 57.66L165.59 57.66L168.47 58.19L168.36 59.73ZM168.29 50.00L168.29 50.00Q169.52 50.00 170.42 49.42Q171.32 48.84 171.84 47.66Q172.37 46.48 172.37 44.72L172.37 44.72Q172.41 42.96 171.86 41.79Q171.32 40.61 170.44 40.01Q169.56 39.41 168.47 39.41L168.47 39.41Q167.59 39.41 166.82 39.82Q166.04 40.22 165.45 41.00L165.45 41.00L165.45 49.15Q166.01 49.54 166.76 49.77Q167.52 50.00 168.29 50.00Z M184.11 52.28L184.11 52.28Q182.52 52.28 181.38 51.61Q180.24 50.95 179.64 50.00Q179.04 49.05 179.04 48.17L179.04 48.17Q179.04 46.94 179.82 46.11Q180.59 45.29 182.28 44.76L182.28 44.76L187.76 43.07L187.76 41.63Q187.76 40.86 187.27 40.19Q186.78 39.52 185.97 39.10Q185.16 38.68 184.21 38.68L184.21 38.68Q183.54 38.68 183.28 38.97Q183.02 39.27 182.95 40.15L182.95 40.15L182.80 42.05Q181.22 42.40 180.19 41.96Q179.15 41.52 179.15 40.50L179.15 40.50Q179.15 39.87 179.78 39.20Q180.41 38.54 181.38 37.94Q182.35 37.34 183.40 36.92Q184.46 36.50 185.34 36.39L185.34 36.39Q188.29 36.39 190.03 37.80Q191.77 39.20 191.80 41.56L191.80 41.56L191.70 46.76Q191.70 47.64 191.75 48.22Q191.80 48.80 191.95 49.15L191.95 49.15L194.23 49.57L194.23 50.91L192.16 51.79Q191.56 52.04 191.07 52.16Q190.57 52.28 190.15 52.28L190.15 52.28Q188.89 52.28 188.39 50.95L188.39 50.95L187.87 49.40L188.54 49.54Q187.45 50.84 186.32 51.56Q185.20 52.28 184.11 52.28ZM185.62 49.47L185.62 49.47Q186.21 49.47 186.76 49.22Q187.30 48.98 187.76 48.45L187.76 48.45L187.76 44.93L184.84 45.57Q184 45.74 183.63 46.16Q183.26 46.59 183.26 47.29L183.26 47.29Q183.26 48.13 183.95 48.80Q184.63 49.47 185.62 49.47Z M203.08 52.28L203.08 52.28Q200.94 52.28 199.20 51.33Q197.46 50.38 196.42 48.66Q195.38 46.94 195.38 44.69L195.38 44.69Q195.38 42.44 196.47 40.56Q197.56 38.68 199.48 37.53Q201.39 36.39 203.86 36.39L203.86 36.39Q205.40 36.39 206.58 36.79Q207.76 37.20 208.43 37.90Q209.09 38.61 209.09 39.45L209.09 39.45Q209.09 40.22 208.62 40.64Q208.14 41.07 207.41 41.07L207.41 41.07Q206.77 41.07 206.30 40.82Q205.82 40.57 205.19 40.01L205.19 40.01L202.87 37.90L204.49 38.29Q203.33 38.04 202.22 38.59Q201.11 39.13 200.41 40.40Q199.71 41.66 199.71 43.63L199.71 43.63Q199.71 46.38 201.06 47.80Q202.41 49.22 204.42 49.22L204.42 49.22Q205.54 49.22 206.51 48.77Q207.48 48.31 208.39 47.22L208.39 47.22L209.45 48.17Q208.46 50.21 206.77 51.24Q205.09 52.28 203.08 52.28Z M221.36 48.34L222.16 49.29Q221.60 50.70 220.28 51.51Q218.96 52.32 217.42 52.32L217.42 52.32Q215.06 52.32 213.57 50.95Q212.07 49.57 212.07 46.80L212.07 46.80L212.18 38.78L209.72 38.78L209.72 37.76L215.17 33.26L216.19 33.26L216.12 37.90L216.05 46.34Q216.05 47.92 216.79 48.64Q217.52 49.36 218.86 49.36L218.86 49.36Q219.56 49.36 220.21 49.08Q220.86 48.80 221.36 48.34L221.36 48.34ZM221.18 38.78L214.29 38.78L214.29 36.71L221.18 36.71L221.18 38.78Z"/>

  <!-- Wordmark "Engine" (Crimson Pro 300, converted to path) -->
  <path fill="#1a365d" d="M246.52 47.18L245.11 52.18Q244.06 52.04 243.46 52.02Q242.86 52 242.27 52L242.27 52L230.21 52L230.14 50.77L232.25 50.31Q232.32 50.14 232.33 49.54Q232.35 48.94 232.37 47.85Q232.39 46.76 232.39 45.21L232.39 45.21L232.39 38.18Q232.39 36.60 232.37 35.49Q232.35 34.39 232.33 33.79Q232.32 33.19 232.25 33.05L232.25 33.05L230.14 32.59L230.21 31.36L241.63 31.36Q242.05 31.36 242.48 31.36Q242.90 31.36 243.41 31.33Q243.92 31.29 244.66 31.22L244.66 31.22L245.29 35.72L243.81 35.93L242.69 33.05Q242.48 32.98 242.13 32.96Q241.77 32.95 241.39 32.95L241.39 32.95L237.03 32.95Q236.36 32.95 235.88 32.96Q235.41 32.98 234.92 33.05L234.92 33.05Q234.92 33.19 234.90 33.84Q234.88 34.49 234.87 35.34Q234.85 36.18 234.85 36.92L234.85 36.92L234.85 47.01Q234.85 47.61 234.87 48.27Q234.88 48.94 234.90 49.49Q234.92 50.03 234.92 50.21L234.92 50.21Q235.38 50.24 235.87 50.28Q236.36 50.31 236.92 50.31L236.92 50.31L240.75 50.31Q241.49 50.31 242.00 50.29Q242.51 50.28 242.81 50.24Q243.11 50.21 243.25 50.17L243.25 50.17L245.08 46.90L246.52 47.18ZM242.76 44.76L241.39 44.76L240.93 42.33Q240.75 42.26 240.37 42.23Q239.98 42.19 239.42 42.19L239.42 42.19L236.54 42.19Q236.11 42.19 235.57 42.23Q235.02 42.26 234.39 42.30L234.39 42.30L234.39 40.50Q235.02 40.54 235.57 40.56Q236.11 40.57 236.54 40.57L236.54 40.57L239.42 40.57Q239.98 40.57 240.37 40.54Q240.75 40.50 240.93 40.47L240.93 40.47L241.39 38.01L242.76 38.01L242.76 44.76Z M257.59 52L250.91 52L250.84 50.84L253.02 50.31Q253.05 50.03 253.07 49.63Q253.09 49.22 253.11 48.48Q253.13 47.75 253.13 46.52L253.13 46.52L253.16 43.77Q253.16 42.58 253.07 41.33Q252.98 40.08 252.91 39.52L252.91 39.52L250.66 39.03L250.66 37.97L254.95 36.78L255.45 37.30L255.27 39.13L255.38 39.17Q256.68 37.83 257.84 37.27Q259.00 36.71 260.37 36.71L260.37 36.71Q261.60 36.71 262.72 37.32Q263.85 37.94 264.59 39.26Q265.32 40.57 265.32 42.65L265.32 42.65L265.32 46.62Q265.32 47.92 265.39 48.94Q265.46 49.96 265.54 50.31L265.54 50.31L267.71 50.84L267.64 52L261.07 52L261 50.84L263.04 50.31Q263.07 50.03 263.11 49.66Q263.14 49.29 263.16 48.64Q263.18 47.99 263.18 46.94L263.18 46.94L263.18 42.89Q263.18 41.24 262.58 40.29Q261.98 39.34 261.12 38.94Q260.26 38.54 259.45 38.54L259.45 38.54Q258.22 38.54 257.17 39.15Q256.11 39.77 255.34 40.86L255.34 40.86L255.34 46.20Q255.34 47.92 255.39 48.91Q255.45 49.89 255.48 50.31L255.48 50.31L257.66 50.84L257.59 52Z M278.79 60.02L278.79 60.02Q275.69 60.02 273.86 58.94Q272.04 57.87 272.04 56.15L272.04 56.15Q272.04 54.92 272.90 53.90Q273.76 52.88 275.87 51.68L275.87 51.68L277.13 52.04Q275.90 52.74 275.23 53.65Q274.57 54.57 274.57 55.66L274.57 55.66Q274.57 57.10 275.73 57.91Q276.89 58.71 278.89 58.71L278.89 58.71Q281.25 58.71 282.71 57.70Q284.16 56.68 284.16 55.02L284.16 55.02Q284.16 53.76 283.25 53.13Q282.34 52.49 280.26 52.35L280.26 52.35L276.68 52.07L276.08 51.93Q274.92 51.93 274.06 51.24Q273.20 50.56 273.20 49.61L273.20 49.61Q273.20 48.70 274.04 47.80Q274.88 46.90 276.43 46.16L276.43 46.16L276.85 46.90Q276.11 47.43 275.78 47.82Q275.45 48.20 275.45 48.55L275.45 48.55Q275.45 49.08 275.94 49.45Q276.43 49.82 277.31 49.93L277.31 49.93L281.63 50.35Q283.95 50.59 285.22 51.54Q286.48 52.49 286.48 54.36L286.48 54.36Q286.48 55.94 285.46 57.22Q284.45 58.50 282.71 59.26Q280.96 60.02 278.79 60.02ZM279.10 47.57L279.10 47.57Q277.34 47.57 275.92 46.92Q274.50 46.27 273.71 45.11Q272.91 43.95 272.91 42.51L272.91 42.51Q272.91 40.86 273.72 39.55Q274.53 38.25 275.92 37.50Q277.31 36.74 279.03 36.74L279.03 36.74Q280.79 36.74 282.16 37.43Q283.53 38.11 284.30 39.33Q285.08 40.54 285.08 42.09L285.08 42.09Q285.08 43.63 284.29 44.88Q283.50 46.13 282.14 46.85Q280.79 47.57 279.10 47.57ZM279.28 46.34L279.28 46.34Q280.82 46.34 281.72 45.27Q282.62 44.20 282.62 42.40L282.62 42.40Q282.62 40.36 281.62 39.15Q280.61 37.94 279.00 37.94L279.00 37.94Q277.45 37.94 276.46 39.08Q275.48 40.22 275.48 42.05L275.48 42.05Q275.48 43.95 276.52 45.14Q277.55 46.34 279.28 46.34ZM287.26 36.99L287.26 39.10L283.21 38.85L281.84 37.52L287.26 36.99Z M298.01 52L290.98 52L290.91 50.80L293.27 50.31Q293.30 50.17 293.32 49.87Q293.34 49.57 293.35 48.78Q293.37 47.99 293.37 46.52L293.37 46.52L293.37 44.30Q293.37 42.72 293.30 41.40Q293.23 40.08 293.16 39.52L293.16 39.52L290.80 39.03L290.80 37.97L295.38 36.78L295.76 37.20Q295.69 38.29 295.64 39.33Q295.59 40.36 295.59 41.77L295.59 41.77L295.59 46.20Q295.59 47.92 295.64 48.98Q295.69 50.03 295.73 50.31L295.73 50.31L298.08 50.80L298.01 52ZM294.50 32.49L294.50 32.49Q293.72 32.49 293.13 31.96Q292.53 31.43 292.53 30.63L292.53 30.63Q292.53 29.82 293.13 29.29Q293.72 28.76 294.50 28.76L294.50 28.76Q295.27 28.76 295.83 29.29Q296.39 29.82 296.39 30.63L296.39 30.63Q296.39 31.43 295.83 31.96Q295.27 32.49 294.50 32.49Z M308.94 52L302.26 52L302.19 50.84L304.37 50.31Q304.41 50.03 304.42 49.63Q304.44 49.22 304.46 48.48Q304.48 47.75 304.48 46.52L304.48 46.52L304.51 43.77Q304.51 42.58 304.42 41.33Q304.34 40.08 304.27 39.52L304.27 39.52L302.02 39.03L302.02 37.97L306.30 36.78L306.80 37.30L306.62 39.13L306.73 39.17Q308.03 37.83 309.19 37.27Q310.35 36.71 311.72 36.71L311.72 36.71Q312.95 36.71 314.07 37.32Q315.20 37.94 315.94 39.26Q316.68 40.57 316.68 42.65L316.68 42.65L316.68 46.62Q316.68 47.92 316.75 48.94Q316.82 49.96 316.89 50.31L316.89 50.31L319.07 50.84L319.00 52L312.42 52L312.35 50.84L314.39 50.31Q314.43 50.03 314.46 49.66Q314.50 49.29 314.51 48.64Q314.53 47.99 314.53 46.94L314.53 46.94L314.53 42.89Q314.53 41.24 313.93 40.29Q313.34 39.34 312.47 38.94Q311.61 38.54 310.80 38.54L310.80 38.54Q309.57 38.54 308.52 39.15Q307.46 39.77 306.69 40.86L306.69 40.86L306.69 46.20Q306.69 47.92 306.74 48.91Q306.80 49.89 306.83 50.31L306.83 50.31L309.01 50.84L308.94 52Z M330.63 52.28L330.63 52.28Q328.66 52.28 327.06 51.40Q325.46 50.52 324.51 48.84Q323.56 47.15 323.56 44.79L323.56 44.79Q323.56 42.26 324.55 40.45Q325.53 38.64 327.15 37.66Q328.77 36.67 330.63 36.71L330.63 36.71Q333.23 36.74 334.74 38.46Q336.25 40.19 336.25 43.56L336.25 43.56L336.25 44.16L325.32 44.16L325.32 42.68L334.29 42.68L333.93 43.04L333.93 42.40Q333.93 40.29 332.97 39.15Q332 38.01 330.35 38.01L330.35 38.01Q329.29 38.01 328.33 38.62Q327.36 39.24 326.76 40.47Q326.16 41.70 326.16 43.56L326.16 43.56L326.16 43.91Q326.16 46.90 327.61 48.55Q329.05 50.21 331.30 50.21L331.30 50.21Q332.56 50.21 333.55 49.71Q334.53 49.22 335.45 48.10L335.45 48.10L336.29 48.84Q335.30 50.59 333.86 51.44Q332.42 52.28 330.63 52.28Z"/>

  <!-- Divider (aligned to path right edge at 337.63) -->
  <line x1="118" y1="63" x2="338" y2="63" stroke="#1a365d" stroke-width="0.4" opacity="0.15"/>

  <!-- Tagline (stretched to match divider) -->
  <text x="118" y="80"
        font-family="'Inter', -apple-system, sans-serif"
        font-size="9.5" font-weight="400"
        textLength="220" lengthAdjust="spacingAndGlyphs"
        fill="#4a5568">
    <tspan fill="#4a90d9">Measure</tspan><tspan fill="#cbd5e0">  ·  </tspan><tspan fill="#5ab87a">Evaluate</tspan><tspan fill="#cbd5e0">  ·  </tspan><tspan fill="#e8a23c">Allocate</tspan><tspan fill="#cbd5e0">  ·  </tspan><tspan fill="#d46b8a">Scale</tspan>
  </text>

</svg>
