<svg xmlns="http://www.w3.org/2000/svg" viewBox="0 0 400 110" width="400" height="110">

  <!-- Arc Top→Right -->
  <path d="M 71 27 Q 88 27 88 44" fill="none" stroke="#4a90d9" stroke-width="1.8" opacity="0.85" stroke-linecap="round"/>
  <polygon points="88,46 84,39 92,39" fill="#4a90d9" opacity="0.9"/>
  <!-- Arc Right→Bottom -->
  <path d="M 88 66 Q 88 83 71 83" fill="none" stroke="#5ab87a" stroke-width="1.8" opacity="0.85" stroke-linecap="round"/>
  <polygon points="69,83 76,79 76,87" fill="#5ab87a" opacity="0.9"/>
  <!-- Arc Bottom→Left -->
  <path d="M 49 83 Q 32 83 32 66" fill="none" stroke="#e8a23c" stroke-width="1.8" opacity="0.85" stroke-linecap="round"/>
  <polygon points="32,64 28,71 36,71" fill="#e8a23c" opacity="0.9"/>
  <!-- Arc Left→Top -->
  <path d="M 32 44 Q 32 27 49 27" fill="none" stroke="#d46b8a" stroke-width="1.8" opacity="0.85" stroke-linecap="round"/>
  <polygon points="51,27 44,23 44,31" fill="#d46b8a" opacity="0.9"/>

  <!-- Nodes -->
  <circle cx="60" cy="27" r="11" fill="#ffffff" stroke="#4a90d9" stroke-width="1.8"/>
  <circle cx="60" cy="27" r="4" fill="#4a90d9"/>
  <circle cx="88" cy="55" r="11" fill="#ffffff" stroke="#5ab87a" stroke-width="1.8"/>
  <circle cx="88" cy="55" r="4" fill="#5ab87a"/>
  <circle cx="60" cy="83" r="11" fill="#ffffff" stroke="#e8a23c" stroke-width="1.8"/>
  <circle cx="60" cy="83" r="4" fill="#e8a23c"/>
  <circle cx="32" cy="55" r="11" fill="#ffffff" stroke="#d46b8a" stroke-width="1.8"/>
  <circle cx="32" cy="55" r="4" fill="#d46b8a"/>

  <!-- Wordmark -->
  <text x="118" y="52"
        font-family="'Crimson Pro', Georgia, serif"
        font-size="36" fill="#1a365d">
    <tspan font-weight="600" letter-spacing="-0.5">Impact&#160;</tspan><tspan font-weight="300" letter-spacing="2">Engine</tspan>
  </text>

  <!-- Divider -->
  <line x1="118" y1="63" x2="385" y2="63" stroke="#1a365d" stroke-width="0.4" opacity="0.15"/>

  <!-- Tagline -->
  <text x="118" y="80"
        font-family="'Inter', -apple-system, sans-serif"
        font-size="9.5" font-weight="400"
        textLength="267" lengthAdjust="spacingAndGlyphs"
        fill="#4a5568">
    <tspan fill="#4a90d9">Measure</tspan><tspan fill="#cbd5e0">  ·  </tspan><tspan fill="#5ab87a">Evaluate</tspan><tspan fill="#cbd5e0">  ·  </tspan><tspan fill="#e8a23c">Allocate</tspan><tspan fill="#cbd5e0">  ·  </tspan><tspan fill="#d46b8a">Scale</tspan>
  </text>

</svg>
