<?xml version="1.0" encoding="UTF-8"?>
<!DOCTYPE svg PUBLIC "-//W3C//DTD SVG 1.1//EN" "http://www.w3.org/Graphics/SVG/1.1/DTD/svg11.dtd">
<svg xmlns="http://www.w3.org/2000/svg" style="background: transparent; background-color: transparent; color-scheme: light dark;" xmlns:xlink="http://www.w3.org/1999/xlink" version="1.1" width="662px" height="342px" viewBox="-0.5 -0.5 662 342"><defs/><g><g data-cell-id="0"><g data-cell-id="1"><g data-cell-id="ds-group"><g><path d="M 180 30 L 180 13.5 Q 180 0 166.5 0 L 13.5 0 Q 0 0 0 13.5 L 0 30" fill="#dae8fc" stroke="#6c8ebf" stroke-miterlimit="10" pointer-events="all" style="fill: light-dark(rgb(218, 232, 252), rgb(29, 41, 59)); stroke: light-dark(rgb(108, 142, 191), rgb(92, 121, 163));"/><path d="M 0 30 L 0 126.5 Q 0 140 13.5 140 L 166.5 140 Q 180 140 180 126.5 L 180 30" fill="none" stroke="#6c8ebf" stroke-miterlimit="10" pointer-events="none" style="stroke: light-dark(rgb(108, 142, 191), rgb(92, 121, 163));"/><path d="M 0 30 L 180 30" fill="none" stroke="#6c8ebf" stroke-miterlimit="10" pointer-events="none" style="stroke: light-dark(rgb(108, 142, 191), rgb(92, 121, 163));"/></g><g><g fill="#000000" font-family="Helvetica" font-weight="bold" text-anchor="middle" font-size="12px" style="fill: light-dark(rgb(0, 0, 0), rgb(255, 255, 255));"><text x="90" y="20">Data Sources</text></g></g><g data-cell-id="ds-sim"><g><rect x="15" y="40" width="150" height="28" rx="4.2" ry="4.2" fill="#dae8fc" stroke="#6c8ebf" pointer-events="all" style="fill: light-dark(rgb(218, 232, 252), rgb(29, 41, 59)); stroke: light-dark(rgb(108, 142, 191), rgb(92, 121, 163));"/></g><g><g fill="#000000" font-family="Helvetica" text-anchor="middle" font-size="12px" style="fill: light-dark(rgb(0, 0, 0), rgb(255, 255, 255));"><text x="90" y="59">Simulator</text></g></g></g><g data-cell-id="ds-db"><g><rect x="15" y="74" width="150" height="28" rx="4.2" ry="4.2" fill="#dae8fc" stroke="#6c8ebf" pointer-events="all" style="fill: light-dark(rgb(218, 232, 252), rgb(29, 41, 59)); stroke: light-dark(rgb(108, 142, 191), rgb(92, 121, 163));"/></g><g><g fill="#000000" font-family="Helvetica" text-anchor="middle" font-size="12px" style="fill: light-dark(rgb(0, 0, 0), rgb(255, 255, 255));"><text x="90" y="93">Database</text></g></g></g><g data-cell-id="ds-custom"><g><rect x="15" y="108" width="150" height="28" rx="4.2" ry="4.2" fill="#dae8fc" stroke="#6c8ebf" pointer-events="all" style="fill: light-dark(rgb(218, 232, 252), rgb(29, 41, 59)); stroke: light-dark(rgb(108, 142, 191), rgb(92, 121, 163));"/></g><g><g fill="#000000" font-family="Helvetica" text-anchor="middle" font-size="12px" style="fill: light-dark(rgb(0, 0, 0), rgb(255, 255, 255));"><text x="90" y="127">Custom Source...</text></g></g></g></g><g data-cell-id="ie-group"><g><path d="M 460 30 L 460 13.5 Q 460 0 446.5 0 L 213.5 0 Q 200 0 200 13.5 L 200 30" fill="#d5e8d4" stroke="#82b366" stroke-miterlimit="10" pointer-events="all" style="fill: light-dark(rgb(213, 232, 212), rgb(31, 47, 30)); stroke: light-dark(rgb(130, 179, 102), rgb(68, 110, 44));"/><path d="M 200 30 L 200 126.5 Q 200 140 213.5 140 L 446.5 140 Q 460 140 460 126.5 L 460 30" fill="none" stroke="#82b366" stroke-miterlimit="10" pointer-events="none" style="stroke: light-dark(rgb(130, 179, 102), rgb(68, 110, 44));"/><path d="M 200 30 L 460 30" fill="none" stroke="#82b366" stroke-miterlimit="10" pointer-events="none" style="stroke: light-dark(rgb(130, 179, 102), rgb(68, 110, 44));"/></g><g><g fill="#000000" font-family="Helvetica" font-weight="bold" text-anchor="middle" font-size="12px" style="fill: light-dark(rgb(0, 0, 0), rgb(255, 255, 255));"><text x="330" y="20">Impact Engine</text></g></g><g data-cell-id="ie-metrics"><g><rect x="220" y="45" width="100" height="28" rx="4.2" ry="4.2" fill="#d5e8d4" stroke="#82b366" pointer-events="all" style="fill: light-dark(rgb(213, 232, 212), rgb(31, 47, 30)); stroke: light-dark(rgb(130, 179, 102), rgb(68, 110, 44));"/></g><g><g fill="#000000" font-family="Helvetica" text-anchor="middle" font-size="12px" style="fill: light-dark(rgb(0, 0, 0), rgb(255, 255, 255));"><text x="270" y="64">Metrics Layer</text></g></g></g><g data-cell-id="ie-models"><g><rect x="340" y="45" width="100" height="28" rx="4.2" ry="4.2" fill="#d5e8d4" stroke="#82b366" pointer-events="all" style="fill: light-dark(rgb(213, 232, 212), rgb(31, 47, 30)); stroke: light-dark(rgb(130, 179, 102), rgb(68, 110, 44));"/></g><g><g fill="#000000" font-family="Helvetica" text-anchor="middle" font-size="12px" style="fill: light-dark(rgb(0, 0, 0), rgb(255, 255, 255));"><text x="390" y="64">Models Layer</text></g></g></g><g data-cell-id="ie-storage"><g><rect x="280" y="95" width="100" height="28" rx="4.2" ry="4.2" fill="#d5e8d4" stroke="#82b366" pointer-events="all" style="fill: light-dark(rgb(213, 232, 212), rgb(31, 47, 30)); stroke: light-dark(rgb(130, 179, 102), rgb(68, 110, 44));"/></g><g><g fill="#000000" font-family="Helvetica" text-anchor="middle" font-size="12px" style="fill: light-dark(rgb(0, 0, 0), rgb(255, 255, 255));"><text x="330" y="114">Storage Layer</text></g></g></g></g><g data-cell-id="sm-group"><g><path d="M 660 30 L 660 13.5 Q 660 0 646.5 0 L 493.5 0 Q 480 0 480 13.5 L 480 30" fill="#e1d5e7" stroke="#9673a6" stroke-miterlimit="10" pointer-events="all" style="fill: light-dark(rgb(225, 213, 231), rgb(57, 47, 63)); stroke: light-dark(rgb(150, 115, 166), rgb(149, 119, 163));"/><path d="M 480 30 L 480 126.5 Q 480 140 493.5 140 L 646.5 140 Q 660 140 660 126.5 L 660 30" fill="none" stroke="#9673a6" stroke-miterlimit="10" pointer-events="none" style="stroke: light-dark(rgb(150, 115, 166), rgb(149, 119, 163));"/><path d="M 480 30 L 660 30" fill="none" stroke="#9673a6" stroke-miterlimit="10" pointer-events="none" style="stroke: light-dark(rgb(150, 115, 166), rgb(149, 119, 163));"/></g><g><g fill="#000000" font-family="Helvetica" font-weight="bold" text-anchor="middle" font-size="12px" style="fill: light-dark(rgb(0, 0, 0), rgb(255, 255, 255));"><text x="570" y="20">Model Adapters</text></g></g><g data-cell-id="sm-its"><g><rect x="495" y="40" width="150" height="28" rx="4.2" ry="4.2" fill="#e1d5e7" stroke="#9673a6" pointer-events="all" style="fill: light-dark(rgb(225, 213, 231), rgb(57, 47, 63)); stroke: light-dark(rgb(150, 115, 166), rgb(149, 119, 163));"/></g><g><g fill="#000000" font-family="Helvetica" text-anchor="middle" font-size="12px" style="fill: light-dark(rgb(0, 0, 0), rgb(255, 255, 255));"><text x="570" y="59">InterruptedTimeSeries</text></g></g></g><g data-cell-id="sm-ma"><g><rect x="495" y="74" width="150" height="28" rx="4.2" ry="4.2" fill="#e1d5e7" stroke="#9673a6" pointer-events="all" style="fill: light-dark(rgb(225, 213, 231), rgb(57, 47, 63)); stroke: light-dark(rgb(150, 115, 166), rgb(149, 119, 163));"/></g><g><g fill="#000000" font-family="Helvetica" text-anchor="middle" font-size="12px" style="fill: light-dark(rgb(0, 0, 0), rgb(255, 255, 255));"><text x="570" y="93">MetricsApproximation</text></g></g></g><g data-cell-id="sm-custom"><g><rect x="495" y="108" width="150" height="28" rx="4.2" ry="4.2" fill="#e1d5e7" stroke="#9673a6" pointer-events="all" style="fill: light-dark(rgb(225, 213, 231), rgb(57, 47, 63)); stroke: light-dark(rgb(150, 115, 166), rgb(149, 119, 163));"/></g><g><g fill="#000000" font-family="Helvetica" text-anchor="middle" font-size="12px" style="fill: light-dark(rgb(0, 0, 0), rgb(255, 255, 255));"><text x="570" y="127">Custom Model...</text></g></g></g></g><g data-cell-id="ds-storage-group"><g><path d="M 420 230 L 420 213.5 Q 420 200 406.5 200 L 253.5 200 Q 240 200 240 213.5 L 240 230" fill="#ffe6cc" stroke="#d79b00" stroke-miterlimit="10" pointer-events="all" style="fill: light-dark(rgb(255, 230, 204), rgb(54, 33, 10)); stroke: light-dark(rgb(215, 155, 0), rgb(153, 101, 0));"/><path d="M 240 230 L 240 326.5 Q 240 340 253.5 340 L 406.5 340 Q 420 340 420 326.5 L 420 230" fill="none" stroke="#d79b00" stroke-miterlimit="10" pointer-events="none" style="stroke: light-dark(rgb(215, 155, 0), rgb(153, 101, 0));"/><path d="M 240 230 L 420 230" fill="none" stroke="#d79b00" stroke-miterlimit="10" pointer-events="none" style="stroke: light-dark(rgb(215, 155, 0), rgb(153, 101, 0));"/></g><g><g fill="#000000" font-family="Helvetica" font-weight="bold" text-anchor="middle" font-size="12px" style="fill: light-dark(rgb(0, 0, 0), rgb(255, 255, 255));"><text x="330" y="220">Data Storage</text></g></g><g data-cell-id="ds-local"><g><rect x="255" y="240" width="150" height="28" rx="4.2" ry="4.2" fill="#ffe6cc" stroke="#d79b00" pointer-events="all" style="fill: light-dark(rgb(255, 230, 204), rgb(54, 33, 10)); stroke: light-dark(rgb(215, 155, 0), rgb(153, 101, 0));"/></g><g><g fill="#000000" font-family="Helvetica" text-anchor="middle" font-size="12px" style="fill: light-dark(rgb(0, 0, 0), rgb(255, 255, 255));"><text x="330" y="259">Local Storage</text></g></g></g><g data-cell-id="ds-s3"><g><rect x="255" y="274" width="150" height="28" rx="4.2" ry="4.2" fill="#ffe6cc" stroke="#d79b00" pointer-events="all" style="fill: light-dark(rgb(255, 230, 204), rgb(54, 33, 10)); stroke: light-dark(rgb(215, 155, 0), rgb(153, 101, 0));"/></g><g><g fill="#000000" font-family="Helvetica" text-anchor="middle" font-size="12px" style="fill: light-dark(rgb(0, 0, 0), rgb(255, 255, 255));"><text x="330" y="293">S3 Storage</text></g></g></g><g data-cell-id="ds-custom-backend"><g><rect x="255" y="308" width="150" height="28" rx="4.2" ry="4.2" fill="#ffe6cc" stroke="#d79b00" pointer-events="all" style="fill: light-dark(rgb(255, 230, 204), rgb(54, 33, 10)); stroke: light-dark(rgb(215, 155, 0), rgb(153, 101, 0));"/></g><g><g fill="#000000" font-family="Helvetica" text-anchor="middle" font-size="12px" style="fill: light-dark(rgb(0, 0, 0), rgb(255, 255, 255));"><text x="330" y="327">Custom Backend...</text></g></g></g></g><g data-cell-id="arrow1"><g><path d="M 180 70 L 191.76 70" fill="none" stroke="#666666" stroke-width="2" stroke-miterlimit="10" pointer-events="stroke" style="stroke: light-dark(rgb(102, 102, 102), rgb(149, 149, 149));"/><path d="M 197.76 70 L 189.76 74 L 191.76 70 L 189.76 66 Z" fill="#666666" stroke="#666666" stroke-width="2" stroke-miterlimit="10" pointer-events="all" style="fill: light-dark(rgb(102, 102, 102), rgb(149, 149, 149)); stroke: light-dark(rgb(102, 102, 102), rgb(149, 149, 149));"/></g></g><g data-cell-id="arrow2"><g><path d="M 480 70 L 468.24 70" fill="none" stroke="#666666" stroke-width="2" stroke-miterlimit="10" pointer-events="stroke" style="stroke: light-dark(rgb(102, 102, 102), rgb(149, 149, 149));"/><path d="M 462.24 70 L 470.24 66 L 468.24 70 L 470.24 74 Z" fill="#666666" stroke="#666666" stroke-width="2" stroke-miterlimit="10" pointer-events="all" style="fill: light-dark(rgb(102, 102, 102), rgb(149, 149, 149)); stroke: light-dark(rgb(102, 102, 102), rgb(149, 149, 149));"/></g></g><g data-cell-id="arrow3"><g><path d="M 330 140 L 330 191.76" fill="none" stroke="#666666" stroke-width="2" stroke-miterlimit="10" pointer-events="stroke" style="stroke: light-dark(rgb(102, 102, 102), rgb(149, 149, 149));"/><path d="M 330 197.76 L 326 189.76 L 330 191.76 L 334 189.76 Z" fill="#666666" stroke="#666666" stroke-width="2" stroke-miterlimit="10" pointer-events="all" style="fill: light-dark(rgb(102, 102, 102), rgb(149, 149, 149)); stroke: light-dark(rgb(102, 102, 102), rgb(149, 149, 149));"/></g></g></g></g></g></svg>
